<svg xmlns="http://www.w3.org/2000/svg" xmlns:xlink="http://www.w3.org/1999/xlink" width="1366" zoomAndPan="magnify" viewBox="0 0 1024.5 576" height="768" preserveAspectRatio="xMidYMid meet" version="1.0"><defs><clipPath id="e2e9127dbd"><path d="M 0 0.140625 L 112.40625 0.140625 L 112.40625 187.757812 L 0 187.757812 Z M 0 0.140625 " clip-rule="nonzero"/></clipPath><clipPath id="547e35ecce"><path d="M 0 -37.050781 C -62.078125 -37.050781 -112.40625 13.273438 -112.40625 75.351562 C -112.40625 137.433594 -62.078125 187.757812 0 187.757812 C 62.078125 187.757812 112.40625 137.433594 112.40625 75.351562 C 112.40625 13.273438 62.078125 -37.050781 0 -37.050781 " clip-rule="nonzero"/></clipPath><clipPath id="c25afbf3d4"><path d="M 349.613281 0.140625 L 574.421875 0.140625 L 574.421875 75.351562 L 349.613281 75.351562 Z M 349.613281 0.140625 " clip-rule="nonzero"/></clipPath><clipPath id="89505c064c"><path d="M 462.015625 -149.457031 C 399.9375 -149.457031 349.613281 -99.128906 349.613281 -37.050781 C 349.613281 25.027344 399.9375 75.351562 462.015625 75.351562 C 524.097656 75.351562 574.421875 25.027344 574.421875 -37.050781 C 574.421875 -99.128906 524.097656 -149.457031 462.015625 -149.457031 " clip-rule="nonzero"/></clipPath><clipPath id="d2f590eb5c"><path d="M 213.375 0.140625 L 438.183594 0.140625 L 438.183594 75.351562 L 213.375 75.351562 Z M 213.375 0.140625 " clip-rule="nonzero"/></clipPath><clipPath id="4214b17c29"><path d="M 325.777344 -149.457031 C 263.699219 -149.457031 213.375 -99.128906 213.375 -37.050781 C 213.375 25.027344 263.699219 75.351562 325.777344 75.351562 C 387.855469 75.351562 438.183594 25.027344 438.183594 -37.050781 C 438.183594 -99.128906 387.855469 -149.457031 325.777344 -149.457031 " clip-rule="nonzero"/></clipPath><clipPath id="889dc6f495"><path d="M 464 0.140625 L 690 0.140625 L 690 76 L 464 76 Z M 464 0.140625 " clip-rule="nonzero"/></clipPath><clipPath id="d69f5fd133"><path d="M 608.71875 118.722656 L 421.300781 -5.425781 L 545.453125 -192.84375 L 732.871094 -68.695312 Z M 608.71875 118.722656 " clip-rule="nonzero"/></clipPath><clipPath id="c1a01e9195"><path d="M 515.007812 56.648438 C 566.761719 90.933594 636.511719 76.769531 670.792969 25.015625 C 705.078125 -26.738281 690.914062 -96.484375 639.160156 -130.769531 C 587.40625 -165.054688 517.660156 -150.890625 483.375 -99.136719 C 449.09375 -47.382812 463.253906 22.363281 515.007812 56.648438 " clip-rule="nonzero"/></clipPath><clipPath id="4276bc7af5"><path d="M 900 0.140625 L 1024 0.140625 L 1024 188 L 900 188 Z M 900 0.140625 " clip-rule="nonzero"/></clipPath><clipPath id="bfe60923e0"><path d="M 1044.230469 231.128906 L 856.8125 106.976562 L 980.964844 -80.441406 L 1168.382812 43.710938 Z M 1044.230469 231.128906 " clip-rule="nonzero"/></clipPath><clipPath id="fb734ec5dd"><path d="M 950.523438 169.050781 C 1002.277344 203.335938 1072.023438 189.171875 1106.308594 137.417969 C 1140.589844 85.664062 1126.429688 15.917969 1074.675781 -18.363281 C 1022.921875 -52.648438 953.171875 -38.484375 918.890625 13.269531 C 884.605469 65.023438 898.769531 134.769531 950.523438 169.050781 " clip-rule="nonzero"/></clipPath><clipPath id="1794df8fd5"><path d="M 617 0.140625 L 843 0.140625 L 843 101 L 617 101 Z M 617 0.140625 " clip-rule="nonzero"/></clipPath><clipPath id="b52987fffc"><path d="M 761.835938 144.367188 L 574.417969 20.214844 L 698.566406 -167.203125 L 885.984375 -43.050781 Z M 761.835938 144.367188 " clip-rule="nonzero"/></clipPath><clipPath id="cb11f2fad1"><path d="M 668.125 82.292969 C 719.878906 116.574219 789.625 102.414062 823.910156 50.660156 C 858.195312 -1.09375 844.03125 -70.84375 792.277344 -105.125 C 740.523438 -139.410156 670.777344 -125.246094 636.492188 -73.492188 C 602.210938 -21.738281 616.371094 48.007812 668.125 82.292969 " clip-rule="nonzero"/></clipPath><clipPath id="d7400787db"><path d="M 43 0.140625 L 269 0.140625 L 269 113 L 43 113 Z M 43 0.140625 " clip-rule="nonzero"/></clipPath><clipPath id="ad16efb387"><path d="M 187.414062 155.988281 L -0.00390625 31.835938 L 124.144531 -155.582031 L 311.5625 -31.429688 Z M 187.414062 155.988281 " clip-rule="nonzero"/></clipPath><clipPath id="77f1b1fafe"><path d="M 93.703125 93.914062 C 145.457031 128.195312 215.203125 114.035156 249.488281 62.28125 C 283.773438 10.527344 269.609375 -59.222656 217.855469 -93.503906 C 166.101562 -127.789062 96.355469 -113.625 62.070312 -61.871094 C 27.789062 -10.117188 41.949219 59.628906 93.703125 93.914062 " clip-rule="nonzero"/></clipPath><clipPath id="e8a42d435d"><path d="M 943.570312 365.21875 L 1024 365.21875 L 1024 575.859375 L 943.570312 575.859375 Z M 943.570312 365.21875 " clip-rule="nonzero"/></clipPath><clipPath id="62046a4c91"><path d="M 1055.976562 590.027344 C 1118.054688 590.027344 1168.378906 539.699219 1168.378906 477.621094 C 1168.378906 415.542969 1118.054688 365.21875 1055.976562 365.21875 C 993.898438 365.21875 943.570312 415.542969 943.570312 477.621094 C 943.570312 539.699219 993.898438 590.027344 1055.976562 590.027344 " clip-rule="nonzero"/></clipPath><clipPath id="78a08e45a3"><path d="M 0 420 L 113 420 L 113 575.859375 L 0 575.859375 Z M 0 420 " clip-rule="nonzero"/></clipPath><clipPath id="7b0893e83c"><path d="M -31.636719 376.976562 L 155.78125 501.128906 L 31.628906 688.546875 L -155.789062 564.394531 Z M -31.636719 376.976562 " clip-rule="nonzero"/></clipPath><clipPath id="3db7bcfdc9"><path d="M 62.074219 439.054688 C 10.320312 404.769531 -59.429688 418.933594 -93.710938 470.6875 C -127.996094 522.441406 -113.832031 592.1875 -62.078125 626.46875 C -10.324219 660.753906 59.421875 646.589844 93.707031 594.835938 C 127.988281 543.082031 113.828125 473.335938 62.074219 439.054688 " clip-rule="nonzero"/></clipPath><clipPath id="0cd66c0b66"><path d="M 57 463 L 283 463 L 283 575.859375 L 57 575.859375 Z M 57 463 " clip-rule="nonzero"/></clipPath><clipPath id="ea92fc4f62"><path d="M 138.355469 420.359375 L 325.773438 544.507812 L 201.625 731.925781 L 14.207031 607.773438 Z M 138.355469 420.359375 " clip-rule="nonzero"/></clipPath><clipPath id="b237c71f3f"><path d="M 232.066406 482.433594 C 180.3125 448.148438 110.566406 462.3125 76.28125 514.066406 C 41.996094 565.820312 56.160156 635.566406 107.914062 669.851562 C 159.667969 704.132812 229.414062 689.972656 263.699219 638.21875 C 297.980469 586.464844 283.820312 516.714844 232.066406 482.433594 " clip-rule="nonzero"/></clipPath><clipPath id="0e6155d4b9"><path d="M 771.125 0.140625 L 995.933594 0.140625 L 995.933594 118.734375 L 771.125 118.734375 Z M 771.125 0.140625 " clip-rule="nonzero"/></clipPath><clipPath id="e1607f86ef"><path d="M 883.527344 -106.074219 C 821.449219 -106.074219 771.125 -55.75 771.125 6.328125 C 771.125 68.410156 821.449219 118.734375 883.527344 118.734375 C 945.609375 118.734375 995.933594 68.410156 995.933594 6.328125 C 995.933594 -55.75 945.609375 -106.074219 883.527344 -106.074219 " clip-rule="nonzero"/></clipPath><clipPath id="87b1dd6605"><path d="M 235.617188 477.628906 L 512.25 477.628906 L 512.25 575.859375 L 235.617188 575.859375 Z M 235.617188 477.628906 " clip-rule="nonzero"/></clipPath><clipPath id="2b5c80f8c7"><path d="M 373.933594 477.628906 C 297.542969 477.628906 235.617188 539.554688 235.617188 615.945312 C 235.617188 692.335938 297.542969 754.261719 373.933594 754.261719 C 450.324219 754.261719 512.25 692.335938 512.25 615.945312 C 512.25 539.554688 450.324219 477.628906 373.933594 477.628906 " clip-rule="nonzero"/></clipPath><clipPath id="ba48308977"><path d="M 421.304688 477.628906 L 697.9375 477.628906 L 697.9375 575.859375 L 421.304688 575.859375 Z M 421.304688 477.628906 " clip-rule="nonzero"/></clipPath><clipPath id="62a8b31abf"><path d="M 559.621094 477.628906 C 483.230469 477.628906 421.304688 539.554688 421.304688 615.945312 C 421.304688 692.335938 483.230469 754.261719 559.621094 754.261719 C 636.011719 754.261719 697.9375 692.335938 697.9375 615.945312 C 697.9375 539.554688 636.011719 477.628906 559.621094 477.628906 " clip-rule="nonzero"/></clipPath><clipPath id="77b39156c0"><path d="M 594.558594 465.40625 L 871.191406 465.40625 L 871.191406 575.859375 L 594.558594 575.859375 Z M 594.558594 465.40625 " clip-rule="nonzero"/></clipPath><clipPath id="eadf0d54ff"><path d="M 732.875 465.40625 C 656.484375 465.40625 594.558594 527.332031 594.558594 603.722656 C 594.558594 680.113281 656.484375 742.039062 732.875 742.039062 C 809.265625 742.039062 871.191406 680.113281 871.191406 603.722656 C 871.191406 527.332031 809.265625 465.40625 732.875 465.40625 " clip-rule="nonzero"/></clipPath><clipPath id="03b045c55f"><path d="M 761.03125 437.824219 L 1024 437.824219 L 1024 575.859375 L 761.03125 575.859375 Z M 761.03125 437.824219 " clip-rule="nonzero"/></clipPath><clipPath id="f38ed707a0"><path d="M 899.347656 437.824219 C 822.957031 437.824219 761.03125 499.75 761.03125 576.140625 C 761.03125 652.53125 822.957031 714.457031 899.347656 714.457031 C 975.738281 714.457031 1037.664062 652.53125 1037.664062 576.140625 C 1037.664062 499.75 975.738281 437.824219 899.347656 437.824219 " clip-rule="nonzero"/></clipPath></defs><g clip-path="url(#e2e9127dbd)"><g clip-path="url(#547e35ecce)"><path fill="#a683ff" d="M -112.40625 -37.050781 L 112.40625 -37.050781 L 112.40625 187.757812 L -112.40625 187.757812 Z M -112.40625 -37.050781 " fill-opacity="1" fill-rule="nonzero"/></g></g><g clip-path="url(#c25afbf3d4)"><g clip-path="url(#89505c064c)"><path fill="#a683ff" d="M 349.613281 -149.457031 L 574.421875 -149.457031 L 574.421875 75.351562 L 349.613281 75.351562 Z M 349.613281 -149.457031 " fill-opacity="1" fill-rule="nonzero"/></g></g><g clip-path="url(#d2f590eb5c)"><g clip-path="url(#4214b17c29)"><path fill="#a683ff" d="M 213.375 -149.457031 L 438.183594 -149.457031 L 438.183594 75.351562 L 213.375 75.351562 Z M 213.375 -149.457031 " fill-opacity="1" fill-rule="nonzero"/></g></g><g clip-path="url(#889dc6f495)"><g clip-path="url(#d69f5fd133)"><g clip-path="url(#c1a01e9195)"><path fill="#a683ff" d="M 608.71875 118.722656 L 421.300781 -5.425781 L 545.453125 -192.84375 L 732.871094 -68.695312 Z M 608.71875 118.722656 " fill-opacity="1" fill-rule="nonzero"/></g></g></g><g clip-path="url(#4276bc7af5)"><g clip-path="url(#bfe60923e0)"><g clip-path="url(#fb734ec5dd)"><path fill="#a683ff" d="M 1044.230469 231.128906 L 856.8125 106.976562 L 980.964844 -80.441406 L 1168.382812 43.710938 Z M 1044.230469 231.128906 " fill-opacity="1" fill-rule="nonzero"/></g></g></g><g clip-path="url(#1794df8fd5)"><g clip-path="url(#b52987fffc)"><g clip-path="url(#cb11f2fad1)"><path fill="#a683ff" d="M 761.835938 144.367188 L 574.417969 20.214844 L 698.566406 -167.203125 L 885.984375 -43.050781 Z M 761.835938 144.367188 " fill-opacity="1" fill-rule="nonzero"/></g></g></g><g clip-path="url(#d7400787db)"><g clip-path="url(#ad16efb387)"><g clip-path="url(#77f1b1fafe)"><path fill="#a683ff" d="M 187.414062 155.988281 L -0.00390625 31.835938 L 124.144531 -155.582031 L 311.5625 -31.429688 Z M 187.414062 155.988281 " fill-opacity="1" fill-rule="nonzero"/></g></g></g><g clip-path="url(#e8a42d435d)"><g clip-path="url(#62046a4c91)"><path fill="#a683ff" d="M 1168.378906 590.027344 L 943.570312 590.027344 L 943.570312 365.21875 L 1168.378906 365.21875 Z M 1168.378906 590.027344 " fill-opacity="1" fill-rule="nonzero"/></g></g><g clip-path="url(#78a08e45a3)"><g clip-path="url(#7b0893e83c)"><g clip-path="url(#3db7bcfdc9)"><path fill="#a683ff" d="M -31.636719 376.976562 L 155.78125 501.128906 L 31.628906 688.546875 L -155.789062 564.394531 Z M -31.636719 376.976562 " fill-opacity="1" fill-rule="nonzero"/></g></g></g><g clip-path="url(#0cd66c0b66)"><g clip-path="url(#ea92fc4f62)"><g clip-path="url(#b237c71f3f)"><path fill="#a683ff" d="M 138.355469 420.359375 L 325.773438 544.507812 L 201.625 731.925781 L 14.207031 607.773438 Z M 138.355469 420.359375 " fill-opacity="1" fill-rule="nonzero"/></g></g></g><g clip-path="url(#0e6155d4b9)"><g clip-path="url(#e1607f86ef)"><path fill="#a683ff" d="M 771.125 -106.074219 L 995.933594 -106.074219 L 995.933594 118.734375 L 771.125 118.734375 Z M 771.125 -106.074219 " fill-opacity="1" fill-rule="nonzero"/></g></g><g clip-path="url(#87b1dd6605)"><g clip-path="url(#2b5c80f8c7)"><path fill="#a683ff" d="M 235.617188 477.628906 L 512.25 477.628906 L 512.25 754.261719 L 235.617188 754.261719 Z M 235.617188 477.628906 " fill-opacity="1" fill-rule="nonzero"/></g></g><g clip-path="url(#ba48308977)"><g clip-path="url(#62a8b31abf)"><path fill="#a683ff" d="M 421.304688 477.628906 L 697.9375 477.628906 L 697.9375 754.261719 L 421.304688 754.261719 Z M 421.304688 477.628906 " fill-opacity="1" fill-rule="nonzero"/></g></g><g clip-path="url(#77b39156c0)"><g clip-path="url(#eadf0d54ff)"><path fill="#a683ff" d="M 594.558594 465.40625 L 871.191406 465.40625 L 871.191406 742.039062 L 594.558594 742.039062 Z M 594.558594 465.40625 " fill-opacity="1" fill-rule="nonzero"/></g></g><g clip-path="url(#03b045c55f)"><g clip-path="url(#f38ed707a0)"><path fill="#a683ff" d="M 761.03125 437.824219 L 1037.664062 437.824219 L 1037.664062 714.457031 L 761.03125 714.457031 Z M 761.03125 437.824219 " fill-opacity="1" fill-rule="nonzero"/></g></g></svg>